<?xml version="1.0" standalone="no"?>
<!DOCTYPE svg PUBLIC "-//W3C//DTD SVG 20010904//EN"
 "http://www.w3.org/TR/2001/REC-SVG-20010904/DTD/svg10.dtd">
<svg version="1.0" xmlns="http://www.w3.org/2000/svg"
 width="124.000000pt" height="34.000000pt" viewBox="0 0 124.000000 34.000000"
 preserveAspectRatio="xMidYMid meet">

<g transform="translate(0.000000,34.000000) scale(0.100000,-0.100000)"
fill="#fff" stroke="none">
<path d="M1093 220 c-3 -12 -14 -20 -27 -20 -29 0 -46 -18 -46 -50 0 -36 17
-50 62 -50 l38 0 0 70 c0 44 -4 70 -11 70 -6 0 -13 -9 -16 -20z m-8 -70 c0
-29 -32 -41 -41 -16 -9 24 4 48 23 44 12 -2 18 -12 18 -28z"/>
<path d="M851 212 c-6 -11 -6 -35 1 -65 7 -36 14 -47 29 -47 10 0 19 5 19 10
0 6 -4 10 -10 10 -15 0 -12 57 3 64 10 5 10 7 0 12 -7 3 -13 12 -13 20 0 20
-17 17 -29 -4z"/>
<path d="M182 208 c-25 -12 -37 -46 -28 -76 9 -28 61 -48 90 -34 14 6 28 7 37
1 23 -15 65 -10 82 9 22 25 21 75 -1 95 -21 19 -63 22 -78 7 -8 -8 -19 -8 -38
0 -32 12 -34 12 -64 -2z m64 -54 c1 -28 -2 -40 -7 -32 -8 12 -13 4 -10 -14 0
-5 -5 -8 -12 -8 -24 0 -33 15 -26 45 4 17 7 24 8 18 2 -21 28 -15 34 8 4 15 2
17 -6 10 -8 -6 -18 -5 -30 4 -18 13 -18 13 0 17 38 8 48 -2 49 -48z"/>
<path d="M460 189 c0 -30 25 -89 37 -89 8 0 19 15 25 32 l12 33 13 -33 c18
-45 39 -40 52 12 13 54 13 56 2 56 -5 0 -14 -15 -21 -32 l-12 -33 -9 33 c-5
17 -16 32 -24 32 -8 0 -19 -15 -24 -32 l-9 -33 -12 33 c-12 31 -30 44 -30 21z"/>
<path d="M636 184 c-19 -18 -21 -55 -4 -72 7 -7 29 -12 50 -12 l38 0 0 50 0
50 -34 0 c-19 0 -42 -7 -50 -16z m49 -35 c0 -15 -7 -25 -18 -27 -22 -4 -33 24
-17 43 18 21 35 13 35 -16z"/>
<path d="M740 148 c0 -56 17 -65 22 -10 2 25 8 37 18 37 10 0 16 -12 18 -37 4
-48 32 -54 32 -7 0 50 -16 69 -55 67 -35 -1 -35 -1 -35 -50z"/>
<path d="M926 184 c-19 -18 -20 -38 -6 -65 13 -23 53 -25 71 -3 12 15 10 16
-19 10 -21 -5 -32 -4 -32 3 0 6 13 11 29 11 37 0 44 11 25 38 -18 26 -46 28
-68 6z m49 -14 c3 -5 -3 -10 -15 -10 -12 0 -18 5 -15 10 3 6 10 10 15 10 5 0
12 -4 15 -10z"/>
</g>
</svg>
